<?xml version="1.0" encoding="iso-8859-1"?>
<!-- Generator: Adobe Illustrator 19.0.0, SVG Export Plug-In . SVG Version: 6.00 Build 0)  -->
<svg version="1.1" id="Capa_1" xmlns="http://www.w3.org/2000/svg" xmlns:xlink="http://www.w3.org/1999/xlink" x="0px" y="0px"
	 viewBox="0 0 512 512" style="enable-background:new 0 0 512 512;" xml:space="preserve">
<path d="M112.035,252.795c-3.897,3.887-3.897,10.206,0,14.093c3.887,3.897,10.206,3.897,14.093,0c3.897-3.887,3.897-10.206,0-14.093
	C122.241,248.898,115.922,248.898,112.035,252.795z"/>
<path d="M158.521,43.016c-0.035,0.007-0.069,0.014-0.104,0.021C89.636,57.751,40.056,118.919,40.056,189.367
	c0,82.435,67.066,149.5,149.5,149.5s149.5-67.066,149.5-149.5C339.056,94.801,252.509,23.946,158.521,43.016z M189.556,318.934
	c-71.444,0-129.567-58.124-129.567-129.567c0-60.759,43.127-114.089,102.549-126.826c82.538-16.712,156.585,45.856,156.585,126.826
	C319.123,260.81,260.999,318.934,189.556,318.934z"/>
<path d="M399.485,328.83c-3.891-3.892-10.203-3.892-14.095,0l-7.044,7.045l-35.486-35.487
	c23.311-32.154,36.064-71.231,36.064-111.021C378.923,84.95,293.974,0,189.556,0S0.189,84.95,0.189,189.367
	s84.949,189.367,189.367,189.367c39.791,0,78.868-12.753,111.02-36.065l35.487,35.487l-7.045,7.045
	c-3.892,3.892-3.892,10.203,0,14.095l98.11,98.11c21.582,21.594,57.601,19.01,75.852-6.34c14.025-19.456,11.065-47.674-6.889-65.64
	L399.485,328.83z M20.122,189.367c0-93.426,76.008-169.434,169.434-169.434S358.99,95.941,358.99,189.367
	c0,93.313-75.892,169.434-169.434,169.434C96.13,358.801,20.122,282.793,20.122,189.367z M316.158,330.06
	c4.938-4.446,9.644-9.152,14.091-14.09l34.001,34.001l-14.091,14.091L316.158,330.06z M486.808,479.416
	c-11.302,15.697-32.922,16.565-45.581,3.898l-91.066-91.065c17.718-17.717,28.573-28.572,42.278-42.277l89.557,89.548
	C493.114,450.646,495.184,467.795,486.808,479.416z"/>
<path d="M99.856,189.367c0-49.461,40.24-89.7,89.7-89.7c5.504,0,9.967-4.462,9.967-9.967s-4.463-9.967-9.967-9.967
	c-60.452,0-109.634,49.182-109.634,109.634c0,14.138,2.669,27.915,7.931,40.947c1.567,3.881,5.301,6.237,9.244,6.237
	c1.243,0,2.507-0.233,3.729-0.728c5.104-2.061,7.572-7.87,5.51-12.974C102.036,212.201,99.856,200.936,99.856,189.367z"/>
<path d="M189.556,178.693c-5.496,0-9.967-4.471-9.967-9.967c0-5.496,4.471-9.967,9.967-9.967c3.53,0,7.258,1.801,10.779,5.21
	c3.958,3.827,10.266,3.723,14.094-0.231c3.827-3.956,3.724-10.266-0.231-14.094c-5.058-4.895-10.119-7.663-14.675-9.174v-11.61
	c0-5.505-4.463-9.967-9.967-9.967c-5.504,0-9.967,4.462-9.967,9.967v11.681c-11.6,4.114-19.933,15.192-19.933,28.186
	c0,16.487,13.413,29.9,29.9,29.9c5.496,0,9.967,4.471,9.967,9.967c0,5.496-4.471,9.967-9.967,9.967
	c-4.258,0-8.854-2.678-12.942-7.54c-3.541-4.214-9.83-4.757-14.042-1.215c-4.214,3.542-4.757,9.829-1.216,14.042
	c5.328,6.338,11.593,10.754,18.233,12.981v11.632c0,5.505,4.463,9.967,9.967,9.967c5.504,0,9.967-4.462,9.967-9.967v-11.681
	c11.6-4.114,19.933-15.192,19.933-28.186C219.456,192.106,206.043,178.693,189.556,178.693z"/>
<g>
</g>
<g>
</g>
<g>
</g>
<g>
</g>
<g>
</g>
<g>
</g>
<g>
</g>
<g>
</g>
<g>
</g>
<g>
</g>
<g>
</g>
<g>
</g>
<g>
</g>
<g>
</g>
<g>
</g>
</svg>
